<svg width="75" height="40" viewBox="0 0 75 40" fill="none" xmlns="http://www.w3.org/2000/svg">
<circle cx="20" cy="20" r="20" fill="#EE26C2"/>
<path d="M53.7145 27.179C52.8622 27.179 52.0994 27.0192 51.4261 26.6996C50.7528 26.3757 50.218 25.9325 49.8217 25.37C49.4297 24.8075 49.2209 24.1641 49.1953 23.4396H51.4964C51.5391 23.9766 51.7713 24.4155 52.1932 24.7564C52.6151 25.093 53.1222 25.2614 53.7145 25.2614C54.179 25.2614 54.5923 25.1548 54.9545 24.9418C55.3168 24.7287 55.6023 24.4325 55.8111 24.0533C56.0199 23.674 56.1222 23.2415 56.1179 22.7557C56.1222 22.2614 56.0178 21.8224 55.8047 21.4389C55.5916 21.0554 55.2997 20.755 54.929 20.5376C54.5582 20.3161 54.1321 20.2053 53.6506 20.2053C53.2585 20.201 52.8729 20.2734 52.4936 20.4226C52.1143 20.5717 51.8139 20.7678 51.5923 21.0107L49.451 20.6591L50.1349 13.9091H57.7287V15.8906H52.0973L51.7202 19.3615H51.7969C52.0398 19.076 52.3828 18.8395 52.826 18.652C53.2692 18.4602 53.755 18.3643 54.2834 18.3643C55.076 18.3643 55.7834 18.5518 56.4055 18.9268C57.0277 19.2976 57.5178 19.8089 57.8757 20.4609C58.2337 21.1129 58.4126 21.8587 58.4126 22.6982C58.4126 23.5632 58.2124 24.3345 57.8118 25.0121C57.4155 25.6854 56.8636 26.2159 56.1562 26.6037C55.4531 26.9872 54.6392 27.179 53.7145 27.179ZM67.5533 24.5455V23.8551C67.5533 23.348 67.6598 22.8814 67.8729 22.4553C68.0902 22.0291 68.4055 21.6861 68.8189 21.4261C69.2322 21.1662 69.733 21.0362 70.321 21.0362C70.9261 21.0362 71.4332 21.1662 71.8423 21.4261C72.2514 21.6818 72.5604 22.0227 72.7692 22.4489C72.9822 22.875 73.0888 23.3437 73.0888 23.8551V24.5455C73.0888 25.0526 72.9822 25.5192 72.7692 25.9453C72.5561 26.3714 72.2429 26.7145 71.8295 26.9744C71.4205 27.2344 70.9176 27.3643 70.321 27.3643C69.7244 27.3643 69.2195 27.2344 68.8061 26.9744C68.3928 26.7145 68.0795 26.3714 67.8665 25.9453C67.6577 25.5192 67.5533 25.0526 67.5533 24.5455ZM69.2216 23.8551V24.5455C69.2216 24.8821 69.3026 25.1911 69.4645 25.4723C69.6264 25.7536 69.9119 25.8942 70.321 25.8942C70.7344 25.8942 71.0178 25.7557 71.1712 25.4787C71.3288 25.1974 71.4077 24.8864 71.4077 24.5455V23.8551C71.4077 23.5142 71.3331 23.2031 71.1839 22.9219C71.0348 22.6364 70.7472 22.4936 70.321 22.4936C69.9205 22.4936 69.6371 22.6364 69.4709 22.9219C69.3047 23.2031 69.2216 23.5142 69.2216 23.8551ZM60.8991 17.054V16.3636C60.8991 15.8523 61.0078 15.3835 61.2251 14.9574C61.4425 14.5312 61.7578 14.1903 62.1712 13.9347C62.5845 13.6747 63.0852 13.5447 63.6733 13.5447C64.2741 13.5447 64.7791 13.6747 65.1882 13.9347C65.6016 14.1903 65.9126 14.5312 66.1214 14.9574C66.3303 15.3835 66.4347 15.8523 66.4347 16.3636V17.054C66.4347 17.5653 66.3281 18.0341 66.1151 18.4602C65.9063 18.8821 65.5952 19.2209 65.1818 19.4766C64.7685 19.7322 64.2656 19.8601 63.6733 19.8601C63.0724 19.8601 62.5653 19.7322 62.152 19.4766C61.7429 19.2209 61.4318 18.88 61.2188 18.4538C61.0057 18.0277 60.8991 17.5611 60.8991 17.054ZM62.5803 16.3636V17.054C62.5803 17.3949 62.6591 17.706 62.8168 17.9872C62.9787 18.2642 63.2642 18.4027 63.6733 18.4027C64.0824 18.4027 64.3636 18.2642 64.517 17.9872C64.6747 17.706 64.7536 17.3949 64.7536 17.054V16.3636C64.7536 16.0227 64.679 15.7116 64.5298 15.4304C64.3807 15.1449 64.0952 15.0021 63.6733 15.0021C63.2685 15.0021 62.9851 15.1449 62.8232 15.4304C62.6612 15.7159 62.5803 16.027 62.5803 16.3636ZM61.6278 27L70.6278 13.9091H72.2259L63.2259 27H61.6278Z" fill="black"/>
<path d="M20 13.56H30" stroke="white" stroke-width="1.5" stroke-miterlimit="10" stroke-linecap="round" stroke-linejoin="round"/>
<path d="M23.65 18.5H22.22C20.44 18.5 20 18.06 20 16.3V12.2C20 10.44 20.44 10 22.22 10H27.78C29.56 10 30 10.44 30 12.2V16.31C30 18.07 29.56 18.51 27.78 18.51" stroke="white" stroke-width="1.5" stroke-linecap="round" stroke-linejoin="round"/>
<path d="M10 25.06H20" stroke="white" stroke-width="1.5" stroke-miterlimit="10" stroke-linecap="round" stroke-linejoin="round"/>
<path d="M13.5 30H12.22C10.44 30 10 29.56 10 27.8V23.7C10 21.94 10.44 21.5 12.22 21.5H17.78C19.56 21.5 20 21.94 20 23.7V27.81C20 29.57 19.56 30.01 17.78 30.01" stroke="white" stroke-width="1.5" stroke-linecap="round" stroke-linejoin="round"/>
<path d="M30 23C30 26.87 26.87 30 23 30L24.05 28.25" stroke="white" stroke-width="1.5" stroke-linecap="round" stroke-linejoin="round"/>
<path d="M10 17C10 13.13 13.13 10 17 10L15.95 11.75" stroke="white" stroke-width="1.5" stroke-linecap="round" stroke-linejoin="round"/>
</svg>
